<svg preserveAspectRatio="none" width="100%" height="100%" overflow="visible" style="display: block;" viewBox="0 0 16 16" fill="none" xmlns="http://www.w3.org/2000/svg">
<g id="IconSlot">
<path id="Vector" d="M2.55556 7.22222L3.72222 3.72222C3.95556 3.02222 4.57778 2.55556 5.27778 2.55556H10.7222C11.4222 2.55556 12.0444 3.02222 12.2778 3.72222L13.4444 7.22222H14.2222C14.65 7.22222 15 7.57222 15 8V12.6667C15 13.0944 14.65 13.4444 14.2222 13.4444H13.4444C13.0167 13.4444 12.6667 13.0944 12.6667 12.6667V11.8889H3.33333V12.6667C3.33333 13.0944 2.98333 13.4444 2.55556 13.4444H1.77778C1.35 13.4444 1 13.0944 1 12.6667V8C1 7.57222 1.35 7.22222 1.77778 7.22222H2.55556ZM4.88889 4.11111L4.11111 6.44444H11.8889L11.1111 4.11111H4.88889ZM4.11111 9.55556C4.11111 8.91 3.59 8.38889 2.94444 8.38889C2.29889 8.38889 1.77778 8.91 1.77778 9.55556C1.77778 10.2011 2.29889 10.7222 2.94444 10.7222C3.59 10.7222 4.11111 10.2011 4.11111 9.55556ZM14.2222 9.55556C14.2222 8.91 13.7011 8.38889 13.0556 8.38889C12.41 8.38889 11.8889 8.91 11.8889 9.55556C11.8889 10.2011 12.41 10.7222 13.0556 10.7222C13.7011 10.7222 14.2222 10.2011 14.2222 9.55556Z" fill="var(--fill-0, #2E58E4)"/>
</g>
</svg>
