<svg preserveAspectRatio="none" width="100%" height="100%" overflow="visible" style="display: block;" viewBox="0 0 82.1838 96.0743" fill="none" xmlns="http://www.w3.org/2000/svg">
<path id="Shape" fill-rule="evenodd" clip-rule="evenodd" d="M10.1525 0.560453L16.245 4.04944L26.5323 13.6192L35.6211 15.5132L54.9972 11.2268L53.3991 14.2173L54.4978 16.1113L57.8936 16.5101L57.1945 22.4912L52.7 25.6811L55.1969 32.7588L58.9922 38.1418L60.5903 38.7399L59.4916 41.3317L61.589 45.6182L61.0896 52.2971L72.7752 54.5898L76.4707 61.3684L81.6642 65.0568L81.4645 67.7483L74.2734 74.1281L69.9787 83.6979L68.5804 84.7945L64.0859 84.3957L58.5927 87.0872L54.3979 95.5605L45.3091 95.1617L44.9096 91.9718L39.5163 86.8878L39.3165 85.6916L40.9146 85.2929L37.1192 74.7262L33.3239 72.5332L33.8233 69.742L35.3215 70.041L32.425 61.6675L30.4275 63.0631L26.2327 62.3653L25.5335 58.0788L21.3387 55.0883L21.4386 50.4031L20.0403 48.4094L21.139 46.9141L25.0342 46.8144L22.5372 43.3254L18.5422 43.6245L16.3449 40.6339L19.0416 37.743L14.7469 33.3569L2.96141 8.23621H2.06252L2.76165 5.04629L0.664243 3.55101L1.96264 1.35793L4.15993 3.25195L10.1525 0.560453Z" fill="var(--fill-0, #E8EDF0)" stroke="var(--stroke-0, white)"/>
</svg>
